<svg width="30" height="30" viewBox="0 0 30 30" fill="none" xmlns="http://www.w3.org/2000/svg">
<path d="M21.4875 25.2L18.1875 28.5L15 25.3125L18.3 22.0125C18.2 21.7375 18.125 21.45 18.075 21.15C18.025 20.85 18 20.55 18 20.25C18 18.8 18.5125 17.5625 19.5375 16.5375C20.5625 15.5125 21.8 15 23.25 15C23.7 15 24.1375 15.0565 24.5625 15.1695C24.9875 15.2825 25.3875 15.4385 25.7625 15.6375L22.2 19.2L24.3 21.3L27.8625 17.775C28.0625 18.15 28.219 18.544 28.332 18.957C28.445 19.37 28.501 19.801 28.5 20.25C28.5 21.7 27.9875 22.9375 26.9625 23.9625C25.9375 24.9875 24.7 25.5 23.25 25.5C22.925 25.5 22.619 25.475 22.332 25.425C22.045 25.375 21.7635 25.3 21.4875 25.2ZM28.1625 12H25.05C24.4 9.8 23.1625 8 21.3375 6.6C19.5125 5.2 17.4 4.5 15 4.5C12.075 4.5 9.5935 5.519 7.5555 7.557C5.5175 9.595 4.499 12.076 4.5 15C4.5 16.8 4.9065 18.45 5.7195 19.95C6.5325 21.45 7.626 22.675 9 23.625V19.5H12V28.5H3V25.5H6.525C4.975 24.25 3.75 22.719 2.85 20.907C1.95 19.095 1.5 17.126 1.5 15C1.5 13.125 1.8565 11.369 2.5695 9.732C3.2825 8.095 4.2445 6.67 5.4555 5.457C6.6665 4.244 8.0915 3.2815 9.7305 2.5695C11.3695 1.8575 13.126 1.501 15 1.5C18.225 1.5 21.0565 2.494 23.4945 4.482C25.9325 6.47 27.4885 8.976 28.1625 12Z" fill="black"/>
</svg>
