<svg width="31" height="30" viewBox="0 0 31 30" fill="none" xmlns="http://www.w3.org/2000/svg">
<path d="M2.65607 13.674C2.50685 13.5926 2.37571 13.4822 2.27051 13.3494C2.1653 13.2165 2.08819 13.064 2.04379 12.901C1.99939 12.7379 1.98861 12.5676 2.0121 12.4003C2.03559 12.233 2.09286 12.0721 2.18049 11.9273L4.10851 8.625C4.2499 8.37 4.46841 8.1915 4.71262 8.0895L14.7769 2.4795C14.9825 2.3265 15.2396 2.25 15.5095 2.25C15.7795 2.25 16.0365 2.3265 16.2422 2.4795L26.3964 8.1405C26.6406 8.268 26.8463 8.472 26.962 8.727L28.8257 11.94C29.1856 12.552 28.9671 13.3298 28.363 13.674L27.0777 14.4135V20.7375C27.0777 21.222 26.8077 21.6427 26.3964 21.8595L16.2422 27.5205C16.0365 27.6735 15.7795 27.75 15.5095 27.75C15.2396 27.75 14.9825 27.6735 14.7769 27.5205L4.62265 21.8595C4.41649 21.7522 4.24396 21.5908 4.12384 21.393C4.00373 21.1952 3.94063 20.9684 3.94142 20.7375V13.674C3.55581 13.8908 3.06738 13.9035 2.65607 13.674ZM15.5095 4.99125V13.5338L23.1702 9.2625L15.5095 4.99125ZM6.51211 19.9853L14.2242 24.2948V15.7395L6.51211 11.4427V19.9853ZM24.507 19.9853V15.8798L18.0802 19.5773C17.6561 19.8068 17.1805 19.794 16.7949 19.59V24.2948L24.507 19.9853ZM17.8874 16.734L25.9594 12.1057L25.2139 10.818L17.1419 15.4463L17.8874 16.734Z" fill="black"/>
</svg>
