<svg width="31" height="30" viewBox="0 0 31 30" fill="none" xmlns="http://www.w3.org/2000/svg">
<path d="M25.9028 28.5L17.9231 20.2989L20.9838 17.1533L28.9635 25.3544L25.9028 28.5ZM5.78947 28.5L2.72874 25.3544L12.7854 15.0187L10.3077 12.4723L9.28744 13.5208L7.42915 11.611V14.6817L6.4089 15.7302L2 11.199L3.02024 10.1505H6.00809L4.18623 8.27809L9.36032 2.96047C9.84615 2.46117 10.3684 2.09917 10.9271 1.87448C11.4858 1.64979 12.0567 1.53745 12.6397 1.53745C13.2227 1.53745 13.7935 1.64979 14.3522 1.87448C14.9109 2.09917 15.4332 2.46117 15.919 2.96047L12.5668 6.40569L14.3887 8.27809L13.3684 9.32663L15.8461 11.8731L19.1255 8.50278C19.0283 8.22816 18.9496 7.94105 18.8894 7.64147C18.8291 7.34189 18.7985 7.0423 18.7976 6.74272C18.7976 5.26977 19.2897 4.02749 20.274 3.0159C21.2583 2.0043 22.4665 1.499 23.8988 1.5C24.2631 1.5 24.6095 1.53745 24.938 1.61235C25.2664 1.68724 25.6001 1.79959 25.9393 1.94938L22.332 5.65673L24.9554 8.35298L28.5627 4.64563C28.7328 4.99515 28.8484 5.33817 28.9096 5.6747C28.9708 6.01124 29.0009 6.36724 29 6.74272C29 8.21567 28.5083 9.45795 27.525 10.4695C26.5417 11.4811 25.3329 11.9864 23.8988 11.9854C23.6073 11.9854 23.3158 11.9605 23.0243 11.9105C22.7328 11.8606 22.4534 11.7732 22.1862 11.6484L5.78947 28.5Z" fill="black"/>
</svg>
