<svg width="31" height="30" viewBox="0 0 31 30" fill="none" xmlns="http://www.w3.org/2000/svg">
<path d="M22.8636 23.5312C22.3754 23.5312 21.9072 23.3238 21.5619 22.9546C21.2167 22.5854 21.0227 22.0846 21.0227 21.5625C21.0227 21.0404 21.2167 20.5396 21.5619 20.1704C21.9072 19.8012 22.3754 19.5938 22.8636 19.5938C23.3519 19.5938 23.8201 19.8012 24.1654 20.1704C24.5106 20.5396 24.7045 21.0404 24.7045 21.5625C24.7045 22.0846 24.5106 22.5854 24.1654 22.9546C23.8201 23.3238 23.3519 23.5312 22.8636 23.5312ZM24.7045 11.7188L27.11 15H21.6364V11.7188M8.13636 23.5312C7.64812 23.5312 7.17988 23.3238 6.83464 22.9546C6.48941 22.5854 6.29545 22.0846 6.29545 21.5625C6.29545 21.0404 6.48941 20.5396 6.83464 20.1704C7.17988 19.8012 7.64812 19.5938 8.13636 19.5938C8.6246 19.5938 9.09285 19.8012 9.43808 20.1704C9.78332 20.5396 9.97727 21.0404 9.97727 21.5625C9.97727 22.0846 9.78332 22.5854 9.43808 22.9546C9.09285 23.3238 8.6246 23.5312 8.13636 23.5312ZM25.3182 9.75H21.6364V4.5H4.45455C3.09227 4.5 2 5.66812 2 7.125V21.5625H4.45455C4.45455 22.6068 4.84245 23.6083 5.53293 24.3467C6.2234 25.0852 7.15988 25.5 8.13636 25.5C9.11284 25.5 10.0493 25.0852 10.7398 24.3467C11.4303 23.6083 11.8182 22.6068 11.8182 21.5625H19.1818C19.1818 22.6068 19.5697 23.6083 20.2602 24.3467C20.9507 25.0852 21.8872 25.5 22.8636 25.5C23.8401 25.5 24.7766 25.0852 25.4671 24.3467C26.1576 23.6083 26.5455 22.6068 26.5455 21.5625H29V15L25.3182 9.75Z" fill="black"/>
</svg>
